<?xml version="1.0" encoding="utf-8"?>
<!-- Generator: Adobe Illustrator 22.0.1, SVG Export Plug-In . SVG Version: 6.00 Build 0)  -->
<svg version="1.1" id="Layer_1" xmlns="http://www.w3.org/2000/svg" xmlns:xlink="http://www.w3.org/1999/xlink" x="0px" y="0px"
	 viewBox="0 0 30 30" style="enable-background:new 0 0 30 30;" xml:space="preserve">
<g>
	<g>
		<path d="M4.027,21.652l-0.629-0.628c0.863-0.628,1.977-0.546,2.767,0.245c0.883,0.881,0.883,2.171,0,3.054
			c-0.876,0.878-2.169,0.878-3.047,0c-0.792-0.794-0.874-1.909-0.247-2.773l0.625,0.629c-0.32,0.521-0.261,1.144,0.179,1.584
			c0.528,0.526,1.319,0.498,1.877-0.06c0.558-0.558,0.586-1.348,0.059-1.876C5.172,21.388,4.541,21.336,4.027,21.652z"/>
	</g>
	<g>
		<path d="M11.174,24.059v0.89c-1.054-0.168-1.784-1.014-1.784-2.133c0-1.243,0.911-2.156,2.157-2.156
			c1.241,0,2.155,0.913,2.155,2.156c0,1.119-0.729,1.965-1.783,2.133v-0.89c0.597-0.142,0.993-0.621,0.993-1.243
			c0-0.747-0.578-1.285-1.365-1.285c-0.789,0-1.368,0.538-1.368,1.285C10.179,23.438,10.585,23.918,11.174,24.059z"/>
	</g>
	<g>
		<path d="M19.603,22.18l0.628-0.629c0.628,0.863,0.546,1.979-0.246,2.769c-0.88,0.882-2.17,0.882-3.051,0.004
			c-0.879-0.883-0.879-2.173,0-3.054c0.794-0.791,1.907-0.873,2.771-0.245l-0.627,0.628c-0.523-0.322-1.146-0.265-1.584,0.176
			c-0.528,0.528-0.498,1.318,0.058,1.876c0.558,0.558,1.348,0.586,1.878,0.06C19.868,23.323,19.922,22.695,19.603,22.18z"/>
	</g>
	<g>
		<path d="M25.971,23.958l0.627,0.626c-0.863,0.627-1.976,0.545-2.77-0.245c-0.876-0.881-0.876-2.171,0-3.052
			c0.884-0.878,2.171-0.878,3.053,0c0.793,0.791,0.875,1.906,0.247,2.771L26.5,23.429c0.324-0.522,0.265-1.144-0.174-1.583
			c-0.528-0.529-1.319-0.498-1.878,0.06c-0.558,0.556-0.588,1.347-0.059,1.876C24.829,24.222,25.455,24.272,25.971,23.958z"/>
	</g>
	<g>
		<path d="M5.733,14.414l0.559-0.689c0.714,0.796,0.746,1.91,0.036,2.778c-0.781,0.964-2.066,1.097-3.029,0.312
			c-0.968-0.785-1.1-2.068-0.314-3.033c0.708-0.867,1.806-1.064,2.73-0.528l-0.562,0.688C4.6,13.675,3.99,13.795,3.597,14.279
			c-0.473,0.578-0.362,1.364,0.249,1.86c0.61,0.497,1.402,0.444,1.874-0.133C6.111,15.524,6.1,14.892,5.733,14.414z"/>
	</g>
	<g>
		<path d="M12.764,15.635l0.886,0.077c-0.259,1.034-1.167,1.687-2.279,1.589c-1.239-0.108-2.071-1.098-1.959-2.338
			c0.106-1.239,1.097-2.066,2.334-1.958c1.117,0.1,1.896,0.9,1.97,1.962l-0.887-0.075c-0.087-0.61-0.529-1.047-1.149-1.101
			c-0.745-0.067-1.333,0.465-1.402,1.252c-0.066,0.783,0.418,1.407,1.161,1.474C12.057,16.57,12.57,16.21,12.764,15.635z"/>
	</g>
	<g>
		<path d="M17.397,14.374l-0.836-0.301c0.515-0.934,1.557-1.334,2.61-0.954c1.169,0.421,1.72,1.589,1.299,2.76
			c-0.423,1.172-1.592,1.721-2.764,1.297c-1.053-0.379-1.598-1.352-1.398-2.399l0.834,0.301c-0.068,0.608,0.248,1.146,0.834,1.356
			c0.703,0.255,1.405-0.108,1.674-0.85c0.266-0.741-0.044-1.471-0.746-1.724C18.319,13.65,17.729,13.867,17.397,14.374z"/>
	</g>
	<g>
		<path d="M26.6,15.531l0.89,0.004c-0.171,1.054-1.02,1.777-2.14,1.772c-1.244-0.004-2.155-0.92-2.145-2.167
			c0.006-1.244,0.92-2.151,2.166-2.145c1.119,0.005,1.958,0.739,2.123,1.792l-0.888-0.002c-0.139-0.6-0.616-1-1.239-1.002
			c-0.746-0.004-1.287,0.574-1.291,1.361c-0.006,0.791,0.531,1.373,1.277,1.376C25.976,16.522,26.461,16.117,26.6,15.531z"/>
	</g>
	<g>
		<path d="M3.346,7.053L2.474,7.215c-0.029-1.064,0.67-1.938,1.772-2.14c1.222-0.227,2.286,0.502,2.513,1.726
			c0.227,1.224-0.502,2.288-1.728,2.514C3.93,9.52,2.965,8.954,2.61,7.949l0.872-0.161C3.729,8.349,4.277,8.655,4.887,8.54
			c0.733-0.138,1.16-0.806,1.014-1.58c-0.143-0.774-0.78-1.248-1.513-1.112C3.777,5.963,3.379,6.449,3.346,7.053z"/>
	</g>
	<g>
		<path d="M11.715,8.493l0.36,0.809C11.047,9.578,10.037,9.104,9.58,8.08c-0.504-1.139-0.041-2.341,1.095-2.848
			c1.137-0.504,2.342-0.042,2.848,1.094c0.454,1.025,0.129,2.094-0.764,2.672l-0.361-0.81c0.488-0.372,0.657-0.974,0.404-1.542
			c-0.302-0.682-1.053-0.938-1.774-0.617c-0.717,0.318-1.031,1.048-0.726,1.729C10.554,8.33,11.121,8.601,11.715,8.493z"/>
	</g>
	<g>
		<path d="M17.205,6.652l-0.879-0.097c0.278-1.03,1.201-1.663,2.312-1.54c1.237,0.135,2.045,1.143,1.91,2.379
			c-0.138,1.236-1.146,2.044-2.384,1.907c-1.112-0.122-1.873-0.941-1.92-2.007l0.879,0.099c0.077,0.608,0.511,1.058,1.128,1.127
			c0.745,0.079,1.342-0.439,1.429-1.222c0.086-0.783-0.385-1.418-1.128-1.5C17.932,5.73,17.412,6.082,17.205,6.652z"/>
	</g>
	<g>
		<path d="M24.039,7.158L23.18,7.388c-0.113-1.058,0.515-1.985,1.595-2.274c1.201-0.325,2.32,0.318,2.642,1.522
			c0.325,1.199-0.318,2.319-1.52,2.642c-1.082,0.292-2.09-0.193-2.524-1.167l0.858-0.231c0.292,0.539,0.859,0.799,1.46,0.637
			c0.721-0.192,1.092-0.893,0.887-1.655C26.371,6.099,25.7,5.68,24.979,5.874C24.379,6.035,24.018,6.553,24.039,7.158z"/>
	</g>
</g>
</svg>
