<?xml version="1.0" encoding="utf-8"?>
<!-- Generator: Adobe Illustrator 22.0.1, SVG Export Plug-In . SVG Version: 6.00 Build 0)  -->
<svg version="1.1" id="Layer_1" xmlns="http://www.w3.org/2000/svg" xmlns:xlink="http://www.w3.org/1999/xlink" x="0px" y="0px"
	 viewBox="0 0 30 30" style="enable-background:new 0 0 30 30;" xml:space="preserve">
<g>
	<g>
		<path d="M15.117,15.147l0.823,2.473c-3.087,0.517-5.907-1.161-6.945-4.277c-1.157-3.465,0.536-6.853,4.001-8.01
			c3.464-1.156,6.852,0.536,8.006,4c1.041,3.117-0.205,6.151-2.982,7.592l-0.824-2.47c1.531-0.949,2.193-2.657,1.615-4.39
			C18.117,7.986,16,7.025,13.805,7.756c-2.193,0.733-3.309,2.773-2.616,4.852C11.767,14.34,13.346,15.304,15.117,15.147z"/>
	</g>
	<rect x="17.032" y="14.816" transform="matrix(0.9486 -0.3165 0.3165 0.9486 -5.3947 6.6518)" width="1.501" height="10.239"/>
</g>
</svg>
