<?xml version="1.0" encoding="utf-8"?>
<!-- Generator: Adobe Illustrator 22.0.1, SVG Export Plug-In . SVG Version: 6.00 Build 0)  -->
<svg version="1.1" id="Layer_1" xmlns="http://www.w3.org/2000/svg" xmlns:xlink="http://www.w3.org/1999/xlink" x="0px" y="0px"
	 viewBox="0 0 30 30" style="enable-background:new 0 0 30 30;" xml:space="preserve">
<g>
	<g>
		<path d="M17.204,9.746h1.595c-0.299,1.892-1.82,3.205-3.832,3.205c-2.236,0-3.877-1.639-3.877-3.876
			c0-2.236,1.641-3.876,3.877-3.876c2.012,0,3.533,1.312,3.832,3.204h-1.595c-0.255-1.073-1.118-1.787-2.237-1.787
			c-1.341,0-2.31,1.043-2.31,2.459s0.969,2.46,2.31,2.46C16.086,11.535,16.949,10.805,17.204,9.746z"/>
	</g>
	<g>
		<path d="M20.842,17.418h0.987c-0.185,1.172-1.125,1.982-2.372,1.982c-1.383,0-2.399-1.015-2.399-2.399
			c0-1.386,1.017-2.401,2.399-2.401c1.247,0,2.188,0.813,2.372,1.986h-0.987c-0.157-0.666-0.692-1.108-1.385-1.108
			c-0.83,0-1.431,0.647-1.431,1.523c0,0.877,0.601,1.521,1.431,1.521C20.15,18.523,20.685,18.071,20.842,17.418z"/>
	</g>
	<g>
		<path d="M8.217,16.477H7.229c0.185-1.172,1.126-1.984,2.37-1.984c1.385,0,2.401,1.015,2.401,2.399
			c0,1.385-1.016,2.399-2.401,2.399c-1.244,0-2.185-0.811-2.37-1.982h0.987c0.157,0.664,0.692,1.105,1.382,1.105
			c0.833,0,1.431-0.644,1.431-1.522c0-0.876-0.598-1.522-1.431-1.522C8.909,15.37,8.374,15.821,8.217,16.477z"/>
	</g>
	<g>
		<path d="M5.74,22.285l-0.473-0.473c0.648-0.471,1.485-0.407,2.08,0.188c0.662,0.66,0.662,1.628,0,2.29
			c-0.66,0.661-1.628,0.661-2.29,0c-0.592-0.595-0.657-1.432-0.186-2.079l0.472,0.471c-0.241,0.392-0.197,0.86,0.133,1.189
			c0.397,0.396,0.991,0.376,1.409-0.044c0.419-0.418,0.442-1.013,0.045-1.409C6.599,22.087,6.128,22.047,5.74,22.285z"/>
	</g>
	<g>
		<path d="M14.664,24.096v0.665c-0.79-0.123-1.339-0.759-1.339-1.601c0-0.934,0.686-1.619,1.621-1.619
			c0.935,0,1.616,0.686,1.616,1.619c0,0.843-0.547,1.478-1.338,1.601v-0.665c0.45-0.106,0.748-0.469,0.748-0.936
			c0-0.56-0.436-0.965-1.026-0.965c-0.593,0-1.03,0.405-1.03,0.965C13.916,23.627,14.222,23.989,14.664,24.096z"/>
	</g>
	<g>
		<path d="M24.259,24.016l0.471,0.471c-0.646,0.473-1.483,0.411-2.08-0.184c-0.661-0.662-0.661-1.631,0-2.293
			c0.662-0.66,1.632-0.66,2.294,0c0.594,0.598,0.655,1.433,0.184,2.081l-0.472-0.472c0.242-0.392,0.199-0.859-0.132-1.19
			c-0.396-0.395-0.991-0.374-1.409,0.044c-0.42,0.42-0.44,1.013-0.045,1.411C23.4,24.216,23.872,24.257,24.259,24.016z"/>
	</g>
</g>
</svg>
