<?xml version="1.0" encoding="utf-8"?>
<!-- Generator: Adobe Illustrator 22.0.1, SVG Export Plug-In . SVG Version: 6.00 Build 0)  -->
<svg version="1.1" id="Layer_1" xmlns="http://www.w3.org/2000/svg" xmlns:xlink="http://www.w3.org/1999/xlink" x="0px" y="0px"
	 viewBox="0 0 82 12" style="enable-background:new 0 0 82 12;" xml:space="preserve">
<g>
	<path d="M12.891,6c0-0.822,0.152-1.588,0.456-2.298c0.303-0.71,0.724-1.329,1.262-1.857c0.538-0.529,1.182-0.942,1.931-1.241
		c0.749-0.298,1.574-0.448,2.474-0.448c0.891,0,1.713,0.149,2.467,0.448c0.754,0.299,1.402,0.712,1.945,1.241
		c0.543,0.529,0.966,1.148,1.27,1.857C24.998,4.412,25.15,5.178,25.15,6s-0.152,1.588-0.455,2.298
		c-0.304,0.71-0.727,1.329-1.27,1.857s-1.192,0.942-1.945,1.241c-0.754,0.298-1.576,0.448-2.467,0.448
		c-0.901,0-1.726-0.149-2.474-0.448c-0.749-0.298-1.393-0.712-1.931-1.241c-0.538-0.529-0.959-1.148-1.262-1.857
		C13.043,7.588,12.891,6.822,12.891,6z M15.901,6c0,0.44,0.082,0.847,0.249,1.219c0.167,0.372,0.392,0.695,0.675,0.969
		c0.284,0.274,0.614,0.487,0.992,0.639c0.376,0.152,0.775,0.228,1.197,0.228c0.42,0,0.819-0.076,1.197-0.228
		c0.376-0.152,0.71-0.365,0.999-0.639c0.288-0.274,0.515-0.597,0.682-0.969c0.167-0.372,0.25-0.778,0.25-1.219
		c0-0.44-0.083-0.847-0.25-1.219c-0.167-0.372-0.394-0.695-0.682-0.969c-0.289-0.274-0.622-0.487-0.999-0.639
		c-0.377-0.152-0.776-0.228-1.197-0.228c-0.421,0-0.82,0.076-1.197,0.228c-0.377,0.152-0.708,0.365-0.992,0.639
		c-0.283,0.274-0.509,0.597-0.675,0.969C15.984,5.154,15.901,5.56,15.901,6z"/>
	<path d="M32.785,0.465v8.633h3.451v2.437h-6.328V0.465H32.785z"/>
	<path d="M43.533,0.465v8.633h3.451v2.437h-6.328V0.465H43.533z"/>
	<path d="M57.7,2.902h-3.421v1.85h3.23V7.19h-3.23v1.909H57.7v2.437h-6.298V0.465H57.7V2.902z"/>
	<path d="M79.635,2.902v8.633h-2.877V2.902h-2.364V0.465H82v2.437H79.635z"/>
	<path d="M5.991,9.054c-0.421,0-0.812-0.078-1.175-0.235C4.454,8.662,4.138,8.447,3.869,8.173c-0.269-0.274-0.48-0.597-0.631-0.969
		C3.086,6.832,3.011,6.426,3.011,5.985c0-0.43,0.075-0.831,0.227-1.203c0.151-0.372,0.36-0.693,0.623-0.961
		c0.265-0.269,0.58-0.482,0.948-0.639c0.367-0.157,0.765-0.235,1.197-0.235c0.693,0,1.303,0.215,1.839,0.621l0.592-2.852
		C7.979,0.528,7.543,0.387,7.128,0.296c-0.425-0.093-0.858-0.14-1.299-0.14c-0.773,0-1.512,0.145-2.217,0.433
		C2.908,0.878,2.288,1.28,1.755,1.794C1.221,2.307,0.796,2.92,0.477,3.629S0,5.119,0,5.97s0.162,1.638,0.485,2.357
		c0.322,0.719,0.751,1.342,1.285,1.865c0.533,0.523,1.15,0.93,1.849,1.218c0.7,0.289,1.432,0.433,2.195,0.433
		c0.372,0,0.749-0.036,1.131-0.11c0.381-0.073,0.793-0.188,1.233-0.345l0.238-0.083L8.019,8.289
		C7.402,8.792,6.727,9.054,5.991,9.054z"/>
	<path d="M68.217,9.054c-0.421,0-0.812-0.078-1.175-0.235c-0.362-0.157-0.677-0.372-0.947-0.646c-0.27-0.274-0.48-0.597-0.631-0.969
		c-0.152-0.372-0.227-0.778-0.227-1.219c0-0.43,0.075-0.831,0.227-1.203c0.151-0.372,0.36-0.693,0.623-0.961
		c0.265-0.269,0.58-0.482,0.948-0.639c0.367-0.157,0.765-0.235,1.197-0.235c0.693,0,1.303,0.215,1.839,0.621l0.592-2.852
		c-0.457-0.188-0.893-0.329-1.308-0.419c-0.425-0.093-0.858-0.14-1.299-0.14c-0.773,0-1.512,0.145-2.217,0.433
		c-0.705,0.289-1.324,0.691-1.857,1.204c-0.534,0.514-0.959,1.126-1.278,1.836s-0.477,1.49-0.477,2.341s0.162,1.638,0.485,2.357
		c0.322,0.719,0.751,1.342,1.285,1.865c0.533,0.523,1.15,0.93,1.849,1.218c0.7,0.289,1.432,0.433,2.195,0.433
		c0.372,0,0.749-0.036,1.131-0.11c0.381-0.073,0.793-0.188,1.233-0.345l0.238-0.083l-0.397-3.016
		C69.628,8.792,68.954,9.054,68.217,9.054z"/>
</g>
</svg>
