<?xml version="1.0" encoding="utf-8"?>
<!-- Generator: Adobe Illustrator 22.0.1, SVG Export Plug-In . SVG Version: 6.00 Build 0)  -->
<svg version="1.1" id="Layer_1" xmlns="http://www.w3.org/2000/svg" xmlns:xlink="http://www.w3.org/1999/xlink" x="0px" y="0px"
	 viewBox="0 0 30 30" style="enable-background:new 0 0 30 30;" xml:space="preserve">
<path d="M4.42,13.254l3.279-8h2.4l3.283,8h-1.729l-0.657-1.601H6.772l-0.655,1.601H4.42z M10.405,10.214l-1.44-3.521h-0.16
	l-1.441,3.521H10.405z"/>
<g>
	<path d="M11.23,21.44h1.646c-0.307,1.956-1.876,3.306-3.952,3.306c-2.307,0-3.999-1.69-3.999-4s1.692-4,3.999-4
		c2.076,0,3.646,1.356,3.952,3.31H11.23c-0.261-1.107-1.153-1.846-2.307-1.846c-1.384,0-2.384,1.077-2.384,2.536
		c0,1.464,1,2.539,2.384,2.539C10.077,23.285,10.97,22.53,11.23,21.44z"/>
</g>
<path d="M17.5,5.254h5.282c1.441,0,2.399,0.955,2.399,2.396c0,0.624-0.271,1.153-0.719,1.504c0.655,0.336,1.041,0.929,1.041,1.698
	c0,1.44-0.961,2.4-2.4,2.4H17.5V5.254z M22.782,8.531c0.479,0,0.8-0.319,0.8-0.802V7.49c0-0.479-0.32-0.798-0.8-0.798h-3.681v1.839
	H22.782z M19.102,11.813h4.001c0.479,0,0.801-0.322,0.801-0.801V10.77c0-0.481-0.321-0.799-0.801-0.799h-4.001V11.813z"/>
<g>
	<path d="M25.58,20.749c0,2.303-1.759,3.997-4.156,3.997h-4v-7.999h4C23.821,16.747,25.58,18.425,25.58,20.749z M19.021,23.307
		h2.402c1.439,0,2.477-1.072,2.477-2.559c0-1.471-1.038-2.562-2.477-2.562h-2.402V23.307z"/>
</g>
</svg>
