<?xml version="1.0" encoding="utf-8"?>
<!-- Generator: Adobe Illustrator 22.0.1, SVG Export Plug-In . SVG Version: 6.00 Build 0)  -->
<svg version="1.1" id="Layer_1" xmlns="http://www.w3.org/2000/svg" xmlns:xlink="http://www.w3.org/1999/xlink" x="0px" y="0px"
	 viewBox="0 0 30 30" style="enable-background:new 0 0 30 30;" xml:space="preserve">
<g>
	<path d="M10.907,21.033l-0.606-0.604c0.832-0.604,1.906-0.526,2.669,0.237c0.849,0.849,0.849,2.094,0,2.941
		c-0.85,0.85-2.094,0.85-2.939,0c-0.768-0.763-0.845-1.838-0.239-2.668l0.604,0.603c-0.311,0.504-0.255,1.105,0.171,1.528
		c0.508,0.511,1.271,0.48,1.81-0.056c0.538-0.538,0.566-1.301,0.055-1.812C12.009,20.78,11.405,20.728,10.907,21.033z"/>
</g>
<g>
	<path d="M21.129,23.357v0.857c-1.015-0.159-1.722-0.978-1.722-2.058c0-1.199,0.88-2.078,2.084-2.078c1.198,0,2.08,0.879,2.08,2.078
		c0,1.08-0.706,1.899-1.725,2.058v-0.857c0.578-0.137,0.963-0.6,0.963-1.201c0-0.721-0.561-1.24-1.318-1.24
		c-0.761,0-1.323,0.52-1.323,1.24C20.168,22.758,20.562,23.22,21.129,23.357z"/>
</g>
<polygon points="22.058,18.946 10.944,18.946 7.362,7.256 4.463,7.256 4.463,5.756 8.472,5.756 12.054,17.446 20.925,17.446 
	24.094,6.301 25.537,6.711 "/>
</svg>
