<?xml version="1.0" encoding="utf-8"?>
<!-- Generator: Adobe Illustrator 22.0.1, SVG Export Plug-In . SVG Version: 6.00 Build 0)  -->
<svg version="1.1" id="Layer_1" xmlns="http://www.w3.org/2000/svg" xmlns:xlink="http://www.w3.org/1999/xlink" x="0px" y="0px"
	 viewBox="0 0 30 30" style="enable-background:new 0 0 30 30;" xml:space="preserve">
<g>
	<g>
		<path d="M13.997,22.079l0.049,2.547c-3.034-0.42-5.174-2.81-5.234-6.024c-0.069-3.569,2.5-6.24,6.073-6.307
			c3.568-0.066,6.237,2.503,6.305,6.073c0.059,3.213-1.988,5.683-5.003,6.217l-0.047-2.548c1.707-0.438,2.823-1.841,2.788-3.626
			c-0.039-2.144-1.734-3.66-3.997-3.616c-2.261,0.043-3.899,1.622-3.858,3.764C11.105,20.347,12.3,21.706,13.997,22.079z"/>
	</g>
	<path d="M14.807,11.941c-1.775,0-3.239-1.429-3.276-3.217c-0.03-1.813,1.415-3.313,3.222-3.348
		c1.804-0.048,3.309,1.412,3.344,3.223V8.6c0.016,0.876-0.312,1.707-0.92,2.337c-0.608,0.631-1.427,0.987-2.303,1.003
		C14.852,11.941,14.829,11.941,14.807,11.941z M14.816,6.875c-0.012,0-0.023,0-0.034,0c-0.982,0.019-1.767,0.834-1.75,1.819
		c0.02,0.981,0.826,1.79,1.815,1.745c0.478-0.008,0.921-0.202,1.251-0.544c0.331-0.343,0.509-0.793,0.5-1.27
		C16.578,7.653,15.782,6.875,14.816,6.875z"/>
</g>
</svg>
